<?xml version="1.0" encoding="UTF-8" standalone="no"?>
<svg
   xmlns:dc="http://purl.org/dc/elements/1.1/"
   xmlns:cc="http://creativecommons.org/ns#"
   xmlns:rdf="http://www.w3.org/1999/02/22-rdf-syntax-ns#"
   xmlns:svg="http://www.w3.org/2000/svg"
   xmlns="http://www.w3.org/2000/svg"
   xmlns:sodipodi="http://sodipodi.sourceforge.net/DTD/sodipodi-0.dtd"
   xmlns:inkscape="http://www.inkscape.org/namespaces/inkscape"
   width="65.243568mm"
   height="65.243568mm"
   viewBox="0 0 231.178 231.178"
   id="btn_social_full"
   version="1.1"
   inkscape:version="0.91 r13725"
   sodipodi:docname="ClickableGazeDisplay.svg">
  <metadata
     id="metadata66">
    <rdf:RDF>
      <cc:Work
         rdf:about="">
        <dc:format>image/svg+xml</dc:format>
        <dc:type
           rdf:resource="http://purl.org/dc/dcmitype/StillImage" />
        <dc:title></dc:title>
      </cc:Work>
    </rdf:RDF>
  </metadata>
  <defs
     id="defs64">
    <marker
       inkscape:isstock="true"
       style="overflow:visible"
       id="marker9142"
       refX="0"
       refY="0"
       orient="auto"
       inkscape:stockid="Arrow1Lend">
      <path
         transform="matrix(-0.8,0,0,-0.8,-10,0)"
         style="fill:#800000;fill-opacity:1;fill-rule:evenodd;stroke:#800000;stroke-width:1pt;stroke-opacity:1"
         d="M 0,0 5,-5 -12.5,0 5,5 0,0 Z"
         id="path9144"
         inkscape:connector-curvature="0" />
    </marker>
    <marker
       inkscape:isstock="true"
       style="overflow:visible"
       id="marker9084"
       refX="0"
       refY="0"
       orient="auto"
       inkscape:stockid="Arrow2Lstart">
      <path
         transform="matrix(1.1,0,0,1.1,1.1,0)"
         d="M 8.7185878,4.0337352 -2.2072895,0.01601326 8.7185884,-4.0017078 c -1.7454984,2.3720609 -1.7354408,5.6174519 -6e-7,8.035443 z"
         style="fill:#800000;fill-opacity:1;fill-rule:evenodd;stroke:#800000;stroke-width:0.625;stroke-linejoin:round;stroke-opacity:1"
         id="path9086"
         inkscape:connector-curvature="0" />
    </marker>
    <marker
       inkscape:stockid="Arrow1Lend"
       orient="auto"
       refY="0"
       refX="0"
       id="marker9000"
       style="overflow:visible"
       inkscape:isstock="true">
      <path
         id="path9002"
         d="M 0,0 5,-5 -12.5,0 5,5 0,0 Z"
         style="fill:#008000;fill-opacity:1;fill-rule:evenodd;stroke:#008000;stroke-width:1pt;stroke-opacity:1"
         transform="matrix(-0.8,0,0,-0.8,-10,0)"
         inkscape:connector-curvature="0" />
    </marker>
    <marker
       inkscape:stockid="Arrow2Lstart"
       orient="auto"
       refY="0"
       refX="0"
       id="marker8954"
       style="overflow:visible"
       inkscape:isstock="true">
      <path
         id="path8956"
         style="fill:#008000;fill-opacity:1;fill-rule:evenodd;stroke:#008000;stroke-width:0.625;stroke-linejoin:round;stroke-opacity:1"
         d="M 8.7185878,4.0337352 -2.2072895,0.01601326 8.7185884,-4.0017078 c -1.7454984,2.3720609 -1.7354408,5.6174519 -6e-7,8.035443 z"
         transform="matrix(1.1,0,0,1.1,1.1,0)"
         inkscape:connector-curvature="0" />
    </marker>
    <marker
       inkscape:isstock="true"
       style="overflow:visible"
       id="marker8329"
       refX="0"
       refY="0"
       orient="auto"
       inkscape:stockid="Arrow1Lend"
       inkscape:collect="always">
      <path
         transform="matrix(-0.8,0,0,-0.8,-10,0)"
         style="fill:#008000;fill-opacity:1;fill-rule:evenodd;stroke:#008000;stroke-width:1pt;stroke-opacity:1"
         d="M 0,0 5,-5 -12.5,0 5,5 0,0 Z"
         id="path8331"
         inkscape:connector-curvature="0" />
    </marker>
    <marker
       inkscape:isstock="true"
       style="overflow:visible"
       id="marker8295"
       refX="0"
       refY="0"
       orient="auto"
       inkscape:stockid="Arrow2Lstart"
       inkscape:collect="always">
      <path
         transform="matrix(1.1,0,0,1.1,1.1,0)"
         d="M 8.7185878,4.0337352 -2.2072895,0.01601326 8.7185884,-4.0017078 c -1.7454984,2.3720609 -1.7354408,5.6174519 -6e-7,8.035443 z"
         style="fill:#008000;fill-opacity:1;fill-rule:evenodd;stroke:#008000;stroke-width:0.625;stroke-linejoin:round;stroke-opacity:1"
         id="path8297"
         inkscape:connector-curvature="0" />
    </marker>
    <marker
       inkscape:isstock="true"
       style="overflow:visible"
       id="marker7541"
       refX="0"
       refY="0"
       orient="auto"
       inkscape:stockid="Arrow1Lend">
      <path
         transform="matrix(-0.8,0,0,-0.8,-10,0)"
         style="fill:#008000;fill-opacity:1;fill-rule:evenodd;stroke:#008000;stroke-width:1pt;stroke-opacity:1"
         d="M 0,0 5,-5 -12.5,0 5,5 0,0 Z"
         id="path7543"
         inkscape:connector-curvature="0" />
    </marker>
  </defs>
  <sodipodi:namedview
     pagecolor="#ffffff"
     bordercolor="#666666"
     borderopacity="1"
     objecttolerance="10"
     gridtolerance="10"
     guidetolerance="10"
     inkscape:pageopacity="0"
     inkscape:pageshadow="2"
     inkscape:window-width="1920"
     inkscape:window-height="1009"
     id="namedview62"
     showgrid="false"
     fit-margin-top="0"
     fit-margin-left="0"
     fit-margin-right="0"
     fit-margin-bottom="0"
     inkscape:zoom="0.80625004"
     inkscape:cx="-83.192233"
     inkscape:cy="216.46854"
     inkscape:window-x="0"
     inkscape:window-y="34"
     inkscape:window-maximized="1"
     inkscape:current-layer="layer1" />
  <g
     inkscape:label="Layer 1"
     inkscape:groupmode="layer"
     id="layer1"
     transform="translate(571.54008,-388.06371)">
    <path
       id="path17"
       d="m -374.36511,503.86787 c -0.0122,-0.65099 0.12678,-15.84803 -0.89725,-18.66046 0,0 -0.38279,-8.56891 -2.30162,-16.1138 -1.91761,-7.5461 -11.1424,-21.73985 -11.1424,-21.73985 0,0 -5.61019,-8.50674 -10.94977,-8.50674 -5.33835,0 -7.17184,4.47159 -9.92697,8.43969 -2.75268,3.96933 -5.57851,8.24951 -12.6126,11.51299 -6.96826,3.23056 -8.05324,4.76417 -33.75388,4.79221 -25.70186,-0.028 -26.78807,-1.56165 -33.75389,-4.79221 -7.0341,-3.26348 -9.85993,-7.54366 -12.61261,-11.51299 -2.75511,-3.9681 -4.58862,-8.43969 -9.9294,-8.43969 -5.33957,0 -10.94856,8.50674 -10.94856,8.50674 0,0 -9.22233,14.19375 -11.14238,21.73985 -1.91884,7.54367 -2.30286,16.1138 -2.30286,16.1138 -1.02403,2.81243 -0.8887,18.00826 -0.8948,18.66046 -0.0122,0.64855 -0.22431,10.27441 1.79082,22.64563 2.01272,12.37244 10.8096,24.31943 10.8096,24.31943 l 68.96822,17.61327 0,0.0122 0.0159,0 0.0159,0 0,-0.0122 68.96823,-17.61327 c 0,0 8.79567,-11.94699 10.80836,-24.31943 2.0127,-12.37244 1.79693,-21.99708 1.79206,-22.64563 z"
       inkscape:connector-curvature="0"
       style="fill:#dcdbdb" />
    <text
       id="text49"
       font-size="52"
       transform="matrix(0.97084431,0.23971094,-0.23971094,0.97084431,0,0)"
       style="font-size:51.99762726px;font-family:GothamRounded-Bold;fill:#b2e3f8"
       x="-357.73828"
       y="617.21808">Hi!</text>
    <circle
       style="fill:#ffffff;stroke:#d1d3d4;stroke-width:10;stroke-miterlimit:10"
       stroke-miterlimit="10"
       cx="-455.95108"
       cy="503.65271"
       r="110.589"
       id="circle69" />
    <path
       inkscape:connector-curvature="0"
       id="path9082"
       d="m -455.95108,399.85762 c 9.86089,72.10555 0.51822,138.45003 0,207.44185"
       style="fill:#800000;fill-rule:evenodd;stroke:#800000;stroke-width:3.29999995;stroke-linecap:round;stroke-linejoin:round;stroke-miterlimit:4;stroke-dasharray:none;stroke-opacity:1;marker-start:url(#marker9084);marker-end:url(#marker9142)"
       sodipodi:nodetypes="cc" />
    <g
       id="g8465"
       transform="translate(-1.6747219,-4.56744)">
      <path
         style="fill:#aeadae"
         inkscape:connector-curvature="0"
         d="m -522.54948,466.01316 c 3.0221,-0.18896 2.54178,-0.81435 10.54991,2.68807 10.9571,4.78976 30.88417,20.52564 30.88417,20.52564 0,0 3.70967,4.47525 5.17988,11.70317 1.47021,7.22306 0.38645,14.64604 0,21.09984 -0.38646,6.45381 -1.34343,22.44449 -1.34343,22.44449 0,0 0.19139,18.2228 24.3621,18.2228 24.1707,0 24.9375,-14.00235 24.9375,-14.00235 0,0 0.61441,-6.7537 0,-13.90848 -0.6132,-7.15479 -0.9582,-12.18105 -2.30284,-23.6916 -1.34222,-11.50811 2.36623,-14.32297 3.45488,-16.87939 1.01061,-1.61284 2.17361,-4.22289 7.86427,-8.82492 5.69067,-4.60203 25.96031,-16.75259 28.58134,-18.03263 2.62224,-1.27759 4.66907,-1.14958 6.52451,-0.4474 1.853,0.70463 3.38781,2.94042 4.98604,6.96948 1.59822,4.03029 2.68563,29.92842 2.68563,29.92842 0,0 0.48153,12.94663 -1.14959,22.63709 -1.63113,9.68559 -3.34393,15.38357 -5.75528,19.56258 -3.66699,4.82024 -20.90966,33.56981 -69.82646,33.56981 -48.9168,0 -66.94944,-26.27971 -69.63385,-29.73337 -2.68685,-3.45243 -5.17987,-11.07655 -6.7147,-19.68449 -1.53603,-8.60913 -1.7262,-35.17533 -1.7262,-35.17533 0,0 0.93867,-16.80379 1.91881,-19.56745 0.98136,-2.76609 2.81852,-9.59294 6.52331,-9.40398 z"
         id="path19" />
      <ellipse
         style="fill:#ffffff"
         cx="-401.87268"
         cy="530.15863"
         rx="20.953547"
         ry="20.396427"
         id="ellipse21" />
      <path
         style="fill:#dcdbdb"
         inkscape:connector-curvature="0"
         d="m -428.52916,564.22468 c -3.49998,1.6299 -4.65322,3.59751 -8.15199,4.60447 -1.8018,0.52054 -8.70666,0.946 -15.57375,1.04962 -6.8695,-0.10367 -13.77438,-0.5303 -15.57374,-1.04962 -3.49998,-1.00696 -4.65323,-2.97457 -8.15321,-4.60447 -2.49301,-1.2008 -1.52751,1.67624 0.16702,3.28298 1.69573,1.60553 4.11317,3.85961 7.98619,5.4883 1.82131,0.76558 8.74567,0.80581 15.57374,0.64246 6.82441,0.16335 13.75123,0.12312 15.57375,-0.64246 3.87058,-1.62869 6.29046,-3.88277 7.98376,-5.4883 1.69451,-1.60674 2.66125,-4.48378 0.16823,-3.28298 z"
         id="path23" />
      <path
         style="fill:#dcdbdb"
         inkscape:connector-curvature="0"
         d="m -385.1482,500.34001 c -3.70966,-1.25077 -6.0125,-2.91848 -16.57583,-2.48692 -10.56089,0.43521 -16.29666,2.32479 -17.59254,3.06355 -1.29589,0.73632 -2.0066,3.7182 1.33367,3.19764 3.34395,-0.52176 10.40242,-1.78352 16.15647,-1.65308 5.75406,0.13044 13.36843,0.0122 15.02028,0.43522 1.6543,0.42059 3.56093,-1.84203 1.65795,-2.55641 z"
         id="path25" />
      <path
         style="fill:#dcdbdb"
         inkscape:connector-curvature="0"
         d="m -522.26422,500.34001 c 3.7121,-1.25077 6.0125,-2.91848 16.57705,-2.48692 10.56211,0.43521 16.29544,2.32479 17.59377,3.06355 1.29588,0.73632 2.0066,3.7182 -1.33611,3.19764 -3.34273,-0.52176 -10.4012,-1.78352 -16.15526,-1.65308 -5.75406,0.13044 -13.36721,0.0122 -15.0215,0.43522 -1.65306,0.42059 -3.55728,-1.84203 -1.65795,-2.55641 z"
         id="path27" />
      <path
         style="fill:#dcdbdb"
         inkscape:connector-curvature="0"
         d="m -485.1091,522.20665 c -3.18302,-7.31448 -10.62671,-12.44437 -19.30047,-12.44437 -10.17444,0 -18.65315,7.06213 -20.55248,16.42223 4.00347,-1.83106 12.2286,-4.98604 21.45216,-4.98604 7.95449,0 14.50949,0.56932 18.40079,1.00818 z"
         id="path29" />
      <path
         style="fill:#ffffff"
         inkscape:connector-curvature="0"
         d="m -507.49018,545.52765 c 7.05847,1.70062 12.22248,1.54457 15.72491,0.89359 5.0482,-3.72551 8.30924,-9.62465 8.30924,-16.26375 0,-2.81973 -0.58759,-5.51024 -1.65307,-7.95206 -3.8913,-0.43887 -10.4463,-1.00818 -18.40202,-1.00818 -9.22233,0 -17.44869,3.15497 -21.45214,4.98604 -0.26088,1.28613 -0.40108,2.61492 -0.40108,3.97541 0,1.57263 0.18896,3.10257 0.53517,4.57278 2.68441,3.51826 7.9801,8.54819 17.33899,10.79617 z"
         id="path31" />
      <path
         style="fill:#dcdbdb"
         inkscape:connector-curvature="0"
         d="m -504.40957,550.55636 c 4.75074,0 9.1309,-1.54092 12.6443,-4.13391 -3.50243,0.64977 -8.66644,0.80582 -15.72491,-0.89359 -9.35889,-2.24919 -14.65458,-7.27912 -17.33776,-10.79616 2.13339,9.06143 10.46093,15.82366 20.41837,15.82366 z"
         id="path33" />
      <path
         style="fill:#dcdbdb"
         inkscape:connector-curvature="0"
         d="m -421.77058,522.20665 c 3.2647,-7.31448 10.8937,-12.44437 19.78445,-12.44437 10.43166,0 19.12128,7.06213 21.06693,16.42223 -4.10343,-1.83106 -12.53336,-4.98604 -21.98734,-4.98604 -8.15442,0 -14.87399,0.56932 -18.86404,1.00818 z"
         id="path35" />
      <path
         style="fill:#dcdbdb"
         inkscape:connector-curvature="0"
         d="m -401.76546,550.55636 c -4.81904,0 -9.26259,-1.54092 -12.82596,-4.13391 3.55362,0.64977 8.7908,0.80582 15.95166,-0.89359 9.49299,-2.24919 14.86303,-7.27912 17.58523,-10.79616 -2.16264,9.06143 -10.61087,15.82366 -20.71093,15.82366 z"
         id="path37" />
      <ellipse
         style="fill:#414141"
         cx="-500.6329"
         cy="531.93365"
         rx="9.9281874"
         ry="8.342164"
         id="ellipse39" />
      <circle
         style="fill:#fdfeff"
         cx="-494.47766"
         cy="527.30975"
         r="4.5861793"
         id="circle41" />
      <ellipse
         style="fill:#414141"
         cx="-405.63602"
         cy="531.93365"
         rx="9.9281874"
         ry="8.342164"
         id="ellipse43" />
      <circle
         style="fill:#fdfeff"
         cx="-399.47977"
         cy="527.30975"
         r="4.58496"
         id="circle45" />
      <path
         style="fill:#dcdbdb"
         inkscape:connector-curvature="0"
         d="m -372.69042,501.87971 c -0.0121,-0.65099 0.12679,-15.84805 -0.89724,-18.66045 0,0 -0.38279,-8.56892 -2.30162,-16.11381 -1.91762,-7.5461 -11.14239,-21.73985 -11.14239,-21.73985 0,0 -5.6102,-8.50673 -10.94978,-8.50673 -5.33834,0 -7.17185,4.47158 -9.92698,8.43968 -2.75267,3.96932 -5.57849,8.24952 -12.6126,11.51177 -6.96826,3.23056 -8.05323,4.76416 -33.75387,4.79342 -25.70187,-0.028 -26.78807,-1.56164 -33.75389,-4.79342 -7.0341,-3.26347 -9.85993,-7.54367 -12.61261,-11.51177 -2.75512,-3.9681 -4.58862,-8.43968 -9.9294,-8.43968 -5.33957,0 -10.94856,8.50673 -10.94856,8.50673 0,0 -9.22233,14.19375 -11.14239,21.73985 -1.91884,7.54368 -2.30285,16.11381 -2.30285,16.11381 -1.02401,2.8124 -0.8887,18.00825 -0.8948,18.66045 -0.0121,0.64856 -0.2243,10.2744 1.79082,22.64563 2.01393,12.37245 10.8096,24.31942 10.8096,24.31942 l 68.96822,17.61327 0,0.0122 0.0159,0 0.0159,0 0,-0.0122 68.96823,-17.61327 c 0,0 8.79567,-11.94697 10.80836,-24.31942 2.01271,-12.37245 1.79694,-21.99707 1.79205,-22.64563 z"
         id="path81" />
      <path
         style="fill:#aeadae"
         inkscape:connector-curvature="0"
         d="m -522.55923,466.01682 c 3.0221,-0.18896 2.54177,-0.81434 10.54991,2.68807 10.95709,4.78977 30.88417,20.52565 30.88417,20.52565 0,0 3.70967,4.47524 5.17988,11.70317 1.4702,7.22304 0.38644,14.64602 0,21.09984 -0.38646,6.45502 -1.34343,22.44447 -1.34343,22.44447 0,0 0.19139,18.22281 24.36209,18.22281 24.1707,0 24.9375,-14.00235 24.9375,-14.00235 0,0 0.61442,-6.75371 0,-13.90849 -0.61319,-7.15477 -0.95819,-12.18104 -2.30162,-23.6916 -1.34343,-11.50812 2.36502,-14.32296 3.45366,-16.87938 1.01061,-1.61284 2.17361,-4.2229 7.86428,-8.82492 5.69067,-4.60202 25.96031,-16.7526 28.58133,-18.03263 2.62224,-1.2776 4.66908,-1.14959 6.52452,-0.4474 1.853,0.70462 3.38783,2.94042 4.98604,6.96948 1.59822,4.03027 2.68562,29.9284 2.68562,29.9284 0,0 0.48154,12.94664 -1.14959,22.63589 -1.63112,9.68559 -3.34393,15.38357 -5.75526,19.5638 -3.66701,4.82025 -20.90966,33.5698 -69.82648,33.5698 -48.9168,0 -66.94944,-26.2797 -69.63385,-29.73336 -2.68563,-3.45243 -5.17986,-11.07657 -6.71468,-19.68448 -1.53483,-8.60793 -1.72622,-35.17534 -1.72622,-35.17534 0,0 0.93869,-16.8038 1.91882,-19.56867 0.98137,-2.76487 2.81852,-9.59294 6.52331,-9.40276 z"
         id="path83" />
      <ellipse
         style="fill:#ffffff"
         cx="-401.88251"
         cy="530.16217"
         rx="20.953547"
         ry="20.396427"
         id="ellipse85" />
      <path
         style="fill:#dcdbdb"
         inkscape:connector-curvature="0"
         d="m -428.53892,564.22834 c -3.49996,1.62991 -4.65322,3.59751 -8.15198,4.60446 -1.8018,0.52055 -8.70667,0.94601 -15.57374,1.04963 -6.86952,-0.10367 -13.77439,-0.5303 -15.57375,-1.04963 -3.49998,-1.00695 -4.65324,-2.97455 -8.15321,-4.60446 -2.49302,-1.2008 -1.52751,1.67623 0.16701,3.28299 1.69574,1.60553 4.11441,3.85959 7.9862,5.48829 1.8213,0.76558 8.74567,0.80581 15.57375,0.64245 6.8244,0.16336 13.75122,0.12313 15.57374,-0.64245 3.87057,-1.6287 6.29046,-3.88276 7.98376,-5.48829 1.69574,-1.60676 2.66125,-4.48379 0.16822,-3.28299 z"
         id="path87" />
      <path
         style="fill:#dcdbdb"
         inkscape:connector-curvature="0"
         d="m -385.15795,500.34367 c -3.70967,-1.25078 -6.0125,-2.91848 -16.57583,-2.48692 -10.56089,0.43521 -16.29666,2.32479 -17.59254,3.06355 -1.29588,0.73632 -2.00661,3.71819 1.33367,3.19765 3.34394,-0.52178 10.40241,-1.78352 16.15646,-1.65308 5.75407,0.13044 13.36843,0.0121 15.02029,0.43521 1.65429,0.41937 3.56094,-1.84203 1.65795,-2.55641 z"
         id="path89" />
      <path
         style="fill:#dcdbdb"
         inkscape:connector-curvature="0"
         d="m -522.27275,500.34367 c 3.71209,-1.25078 6.0125,-2.91848 16.57704,-2.48692 10.56212,0.43521 16.29546,2.32479 17.59377,3.06355 1.29588,0.73632 2.0066,3.71819 -1.33611,3.19765 -3.34271,-0.52178 -10.40119,-1.78352 -16.15524,-1.65308 -5.75408,0.13044 -13.36723,0.0121 -15.02152,0.43521 -1.65306,0.41937 -3.55849,-1.84203 -1.65794,-2.55641 z"
         id="path91" />
      <path
         style="fill:#dcdbdb"
         inkscape:connector-curvature="0"
         d="m -485.11764,522.20909 c -3.18424,-7.31449 -10.62793,-12.44437 -19.30168,-12.44437 -10.17445,0 -18.65315,7.06213 -20.55248,16.42222 4.00346,-1.83105 12.22859,-4.98604 21.45215,-4.98604 7.95451,0 14.5095,0.56932 18.40201,1.00819 z"
         id="path93" />
      <path
         style="fill:#ffffff"
         inkscape:connector-curvature="0"
         d="m -507.49994,545.5313 c 7.05847,1.70063 12.22249,1.54459 15.72492,0.8936 5.0482,-3.72551 8.30923,-9.62464 8.30923,-16.26374 0,-2.81975 -0.58758,-5.51025 -1.65185,-7.95207 -3.89251,-0.43887 -10.4475,-1.00819 -18.40322,-1.00819 -9.22235,0 -17.4487,3.15499 -21.45216,4.98604 -0.26088,1.28613 -0.40107,2.61494 -0.40107,3.97543 0,1.5726 0.18895,3.10255 0.53518,4.57276 2.68441,3.51827 7.98009,8.54819 17.33897,10.79617 z"
         id="path95" />
      <path
         style="fill:#dcdbdb"
         inkscape:connector-curvature="0"
         d="m -504.41932,550.55879 c 4.75074,0 9.1309,-1.54092 12.6443,-4.13389 -3.50243,0.64975 -8.66645,0.80581 -15.72492,-0.8936 -9.35888,-2.2492 -14.65456,-7.27913 -17.33775,-10.79617 2.13338,9.06264 10.46092,15.82366 20.41837,15.82366 z"
         id="path97" />
      <path
         style="fill:#dcdbdb"
         inkscape:connector-curvature="0"
         d="m -421.78033,522.20909 c 3.26469,-7.31449 10.8937,-12.44437 19.78444,-12.44437 10.43045,0 19.12006,7.06213 21.06571,16.42222 -4.10342,-1.83105 -12.53336,-4.98604 -21.98733,-4.98604 -8.15321,0 -14.87155,0.56932 -18.86282,1.00819 z"
         id="path99" />
      <path
         style="fill:#dcdbdb"
         inkscape:connector-curvature="0"
         d="m -401.77522,550.55879 c -4.81903,0 -9.26135,-1.54092 -12.82595,-4.13389 3.55363,0.64975 8.79079,0.80581 15.95167,-0.8936 9.49298,-2.2492 14.86301,-7.27913 17.58522,-10.79617 -2.16265,9.06264 -10.60966,15.82366 -20.71094,15.82366 z"
         id="path101" />
      <ellipse
         style="fill:#414141"
         cx="-500.64255"
         cy="531.93719"
         rx="9.9281874"
         ry="8.342164"
         id="ellipse103" />
      <circle
         style="fill:#fdfeff"
         cx="-494.4863"
         cy="527.31335"
         r="4.5861793"
         id="circle105" />
      <ellipse
         style="fill:#414141"
         cx="-405.64447"
         cy="531.93719"
         rx="9.9281874"
         ry="8.342164"
         id="ellipse107" />
      <circle
         style="fill:#fdfeff"
         cx="-399.48944"
         cy="527.31335"
         r="4.58496"
         id="circle109" />
    </g>
    <path
       style="fill:#800000;fill-rule:evenodd;stroke:#800000;stroke-width:8.10000038;stroke-linecap:round;stroke-linejoin:round;stroke-miterlimit:4;stroke-dasharray:none;stroke-opacity:1"
       d="m -455.95108,424.41451 c 10.74845,51.91329 6.57299,104.82151 0,157.88956"
       id="path8157"
       inkscape:connector-curvature="0"
       sodipodi:nodetypes="cc" />
    <path
       inkscape:connector-curvature="0"
       id="path8293"
       d="m -352.15599,503.65271 c -67.85932,11.59169 -137.24909,9.40928 -207.44185,0"
       style="fill:#008000;fill-rule:evenodd;stroke:#008000;stroke-width:3.29999995;stroke-linecap:square;stroke-linejoin:round;stroke-miterlimit:4;stroke-dasharray:none;stroke-opacity:1;marker-start:url(#marker8295);marker-end:url(#marker8329)"
       sodipodi:nodetypes="cc" />
    <path
       style="fill:#008000;fill-rule:evenodd;stroke:#008000;stroke-width:8.10000038;stroke-linecap:square;stroke-linejoin:round;stroke-miterlimit:4;stroke-dasharray:none;stroke-opacity:1"
       d="m -375.39733,503.65271 c -54.51324,14.19144 -106.29672,12.6867 -156.1355,0"
       id="path8952"
       inkscape:connector-curvature="0"
       sodipodi:nodetypes="cc" />
  </g>
</svg>
