<?xml version="1.0" encoding="UTF-8" standalone="no"?>
<!-- Created with Inkscape (http://www.inkscape.org/) -->

<svg
   xmlns:dc="http://purl.org/dc/elements/1.1/"
   xmlns:cc="http://creativecommons.org/ns#"
   xmlns:rdf="http://www.w3.org/1999/02/22-rdf-syntax-ns#"
   xmlns:svg="http://www.w3.org/2000/svg"
   xmlns="http://www.w3.org/2000/svg"
   xmlns:sodipodi="http://sodipodi.sourceforge.net/DTD/sodipodi-0.dtd"
   xmlns:inkscape="http://www.inkscape.org/namespaces/inkscape"
   width="145.81827mm"
   height="89.244308mm"
   viewBox="0 0 516.6789 316.21999"
   id="svg2"
   version="1.1"
   inkscape:version="0.91 r13725"
   sodipodi:docname="WasdTeleopTool.svg">
  <defs
     id="defs4">
    <inkscape:perspective
       sodipodi:type="inkscape:persp3d"
       inkscape:vp_x="0 : 526.18107 : 1"
       inkscape:vp_y="0 : 999.99994 : 0"
       inkscape:vp_z="744.09449 : 526.18107 : 1"
       inkscape:persp3d-origin="372.04724 : 350.78739 : 1"
       id="perspective3349" />
  </defs>
  <sodipodi:namedview
     id="base"
     pagecolor="#ffffff"
     bordercolor="#666666"
     borderopacity="1.0"
     inkscape:pageopacity="0.0"
     inkscape:pageshadow="2"
     inkscape:zoom="0.49497475"
     inkscape:cx="913.39508"
     inkscape:cy="175.91943"
     inkscape:document-units="px"
     inkscape:current-layer="layer1"
     showgrid="false"
     fit-margin-top="0"
     fit-margin-left="0"
     fit-margin-right="0"
     fit-margin-bottom="0"
     inkscape:window-width="1920"
     inkscape:window-height="1009"
     inkscape:window-x="0"
     inkscape:window-y="34"
     inkscape:window-maximized="1" />
  <metadata
     id="metadata7">
    <rdf:RDF>
      <cc:Work
         rdf:about="">
        <dc:format>image/svg+xml</dc:format>
        <dc:type
           rdf:resource="http://purl.org/dc/dcmitype/StillImage" />
        <dc:title></dc:title>
      </cc:Work>
    </rdf:RDF>
  </metadata>
  <g
     inkscape:label="Layer 1"
     inkscape:groupmode="layer"
     id="layer1"
     transform="translate(-121.74461,-374.00131)">
    <rect
       y="558.43652"
       x="495.67059"
       height="118.58274"
       width="132.55547"
       id="rect3357"
       style="fill:#6f2e1d;fill-opacity:1;stroke:#fcc185;stroke-width:1.27959919;stroke-opacity:1" />
    <rect
       style="fill:#6f2e1d;fill-opacity:1;stroke:#fcc185;stroke-width:1.17548549;stroke-opacity:1"
       id="rect3355"
       width="119.39016"
       height="111.1059"
       x="134.25156"
       y="562.08276" />
    <rect
       y="380.1322"
       x="267.8688"
       height="115.93928"
       width="130.37589"
       id="rect3353"
       style="fill:#6f2e1d;fill-opacity:1;stroke:#fcc185;stroke-width:1.25481117;stroke-opacity:1" />
    <rect
       y="561.36847"
       x="319.96585"
       height="111.1059"
       width="119.39016"
       id="rect3430"
       style="fill:#6f2e1d;fill-opacity:1;stroke:#fcc185;stroke-width:1.17548549;stroke-opacity:1" />
    <g
       id="g3411"
       transform="translate(34.285714,4.6428572)">
      <path
         sodipodi:nodetypes="sssscccssscccscscsssscccssccssccssscccscccssccccssssscccccscscssccsscccssscccsssssssssccsscccsssccccccscsscccssscscccccccccscssscssssssscsss"
         inkscape:connector-curvature="0"
         id="path3347"
         d="m 92.053555,680.79492 c -5.18874,-5.18874 -5.03962,0.83774 -1.81982,-73.54267 2.55049,-58.91869 2.91361,-61.59619 8.77959,-64.73557 1.664505,-0.89081 23.435285,-1.20763 66.965285,-0.97455 l 64.49897,0.34538 3.78374,4.23551 3.78375,4.23553 -0.85651,59.51447 c -0.47108,32.73298 -1.37014,61.51988 -1.99792,63.9709 -0.62777,2.45103 -2.59894,5.82603 -4.38037,7.5 l -3.23895,3.04359 -65.61768,0.34491 -65.617665,0.34493 z m 35.309055,-18.39641 c 1.65222,-0.17664 3.59667,-9.55732 4.32103,-20.84599 l 1.31701,-20.52489 25.47568,-1.31466 c 14.01165,-0.72307 27.51742,0.727 30.01284,3.22245 2.49541,2.49538 4.06961,12.46074 3.49816,22.14517 -0.99895,16.93052 -0.57425,17.55473 11.03698,16.22218 l 12.0759,-1.38588 0,-45.3708 0,-45.37081 -52.39501,-1.20892 c -51.02188,-1.17724 -52.46095,-0.95667 -54.91226,8.41716 -1.38452,5.2944 -0.55979,11.98481 1.83271,14.86766 2.93225,3.53311 2.87331,6.15408 -0.18079,8.04164 -2.50309,1.54696 -4.53086,17.17799 -4.53086,34.92577 0,30.97176 0.34917,32.06055 9.72231,30.31334 5.34729,-0.99678 11.07414,-1.95681 12.7263,-2.13342 z m 5.46036,-56.78195 c -1.56649,-2.53468 -1.74967,-5.70704 -0.40704,-7.04967 1.34267,-1.3427 0.60073,-5.88013 -1.6487,-10.08318 -5.38929,-10.06996 2.13214,-12.82688 34.99453,-12.82688 l 25.57279,0 0,17.28411 0,17.28412 -27.83168,0 c -15.30741,0 -29.11337,-2.07385 -30.6799,-4.6085 z m 144.19816,73.89595 -4.25,-4.25 0.0113,-56.6875 c 0.006,-31.17812 0.37029,-59.68042 0.80959,-63.33844 0.6061,-5.04691 1.68179,-7.534 4.46029,-10.3125 l 3.66118,-3.66156 63.48339,0 63.48339,0 3.2651,3.2651 c 1.7958,1.7958 3.54171,5.03017 3.87979,7.1875 1.34725,8.59681 3.21857,120.57532 2.06567,123.6077 -0.65062,1.71126 -2.70706,4.31026 -4.56987,5.77555 -3.35683,2.64049 -3.95839,2.66415 -67.71834,2.66415 l -64.33144,0 -4.25,-4.25 z M 401.1759,639.19178 c -0.33753,-12.09866 -0.83213,-25.38785 -1.09986,-29.53159 -0.41574,-6.43587 -6.41855,-7.71842 -41.18226,-8.79901 l -40.69545,-1.26498 -1.39207,-12.09865 c -1.53763,-13.36381 -1.23335,-13.45243 41.80521,-12.16784 12.54829,0.37437 26.90166,-1.50612 31.89643,-4.17922 19.85432,-10.62569 8.57715,-13.60146 -46.92174,-12.3812 l -56.00298,1.23134 0.62596,25.6472 c 0.34457,14.10594 1.29419,26.31542 2.11088,27.13211 0.81672,0.81672 19.30208,2.14402 41.07864,2.9496 l 39.59376,1.46469 0,13.19852 0,13.19854 -40.69544,1.26497 c -22.38248,0.69573 -40.69545,2.86792 -40.69545,4.82707 0,7.91043 20.33853,11.50598 65.08491,11.50598 l 47.10255,0 z m 63.47023,43.65478 c -4.17736,-1.04594 -8.96806,-5.07234 -10.39799,-8.73911 -0.77601,-1.98996 -1.90698,-22.12988 -2.65166,-47.21994 -2.12835,-71.70992 -2.11031,-76.11583 0.32693,-79.83551 4.49581,-6.86146 4.26831,-6.83663 70.96733,-7.74824 54.03109,-0.73846 62.32954,-0.60364 66.34567,1.07795 7.99993,3.34964 8.15793,4.03293 10.3205,44.6308 1.08033,20.28125 2.58466,48.20885 3.34291,62.06134 1.56017,28.50244 1.14676,30.73788 -6.38013,34.49922 -4.00101,1.99938 -9.69748,2.17336 -66.87356,2.04249 -34.375,-0.0786 -63.625,-0.42474 -65,-0.769 z m 110.86409,-39.8392 c 8.79344,-13.74638 15.98808,-27.05545 15.98808,-29.57567 0,-2.52023 -7.53944,-15.93751 -16.75429,-29.81609 l -16.75428,-25.23381 -45.26786,0 -45.2679,0 2.58176,49.45896 c 1.41997,27.20241 3.28099,51.77521 4.13564,54.6062 0.99175,3.28503 16.71203,5.22057 43.45233,5.35047 l 41.89847,0.20354 15.98808,-24.99338 z m -68.36052,4.32386 c -3.51794,-3.51795 -4.23354,-67.84618 -0.793,-71.28676 1.25084,-1.2508 8.63684,-1.34035 16.41335,-0.19912 10.04252,1.47392 17.47679,7.11875 25.65878,19.48254 l 11.51967,17.40739 -11.88781,18.83154 c -9.3311,14.78143 -14.67909,18.83173 -24.86582,18.83173 -7.13788,0 -14.35824,-1.38025 -16.04517,-3.06725 z M 233.48637,503.42847 c -1.76838,-1.90252 -3.28628,-4.71502 -3.37311,-6.25 -0.72725,-12.85638 0.60401,-115.07804 1.54628,-118.73175 2.27379,-8.81672 0.35622,-8.56604 65.68193,-8.58635 32.20506,-0.01 60.42606,0.0201 62.71331,0.067 2.85521,0.0585 5.30389,1.23043 7.8125,3.73905 l 3.65385,3.6538 0,60.07643 0,60.07644 -3.64641,4.08221 -3.64641,4.08223 -63.76335,0.625 -63.76335,0.625 -3.21524,-3.4591 z m 44.13483,-39.88988 24.07954,-15.56334 24.64281,15.56334 c 13.55351,8.55982 25.76763,15.56324 27.14235,15.56324 1.37473,0 2.49952,-18.39777 2.49952,-40.88393 l 0,-40.88394 -11.68113,0 c -11.68112,0 -11.68112,0 -11.68112,23.36225 0,25.30135 -2.09357,27.16593 -19.17368,17.0765 -9.83022,-5.80686 -11.60927,-5.785 -23.35141,0.2872 -6.99077,3.61507 -13.86179,5.41979 -15.26895,4.01048 -1.40715,-1.4093 -2.55844,-11.6135 -2.55844,-22.67596 0,-19.59236 -0.29219,-20.11355 -11.27687,-20.11355 l -11.2769,0 -1.14895,39.91051 c -0.63193,21.95076 0.22864,39.91051 1.91237,39.91051 1.68373,0 13.89713,-7.00348 27.14086,-15.56331 z"
         style="fill:#ff2a2a;fill-opacity:1;stroke:#fcc185;stroke-opacity:1" />
    </g>
  </g>
</svg>
